<?xml version="1.0" encoding="UTF-8" standalone="no"?>
<!DOCTYPE svg PUBLIC "-//W3C//DTD SVG 1.1//EN" "http://www.w3.org/Graphics/SVG/1.1/DTD/svg11.dtd">
<svg width="100%" height="100%" viewBox="0 0 210 37" version="1.1" xmlns="http://www.w3.org/2000/svg" xmlns:xlink="http://www.w3.org/1999/xlink" xml:space="preserve" xmlns:serif="http://www.serif.com/" style="fill-rule:evenodd;clip-rule:evenodd;stroke-linejoin:round;stroke-miterlimit:2;">
    <path d="M59.16,26.769C59.16,27.322 59.126,27.898 59.057,28.497L45.738,28.497C45.83,29.696 46.208,30.617 46.874,31.263C47.562,31.885 48.4,32.196 49.386,32.196C50.854,32.196 51.875,31.574 52.449,30.329L58.713,30.329C58.391,31.597 57.806,32.737 56.957,33.751C56.131,34.765 55.087,35.56 53.826,36.136C52.564,36.712 51.153,37 49.593,37C47.711,37 46.036,36.597 44.568,35.79C43.1,34.984 41.953,33.832 41.127,32.334C40.301,30.836 39.888,29.085 39.888,27.08C39.888,25.076 40.289,23.325 41.092,21.827C41.918,20.329 43.065,19.177 44.534,18.37C46.002,17.564 47.688,17.161 49.593,17.161C51.451,17.161 53.103,17.552 54.548,18.336C55.994,19.119 57.118,20.237 57.921,21.689C58.747,23.14 59.16,24.834 59.16,26.769ZM53.137,25.214C53.137,24.2 52.793,23.394 52.105,22.795C51.417,22.195 50.556,21.896 49.524,21.896C48.537,21.896 47.7,22.184 47.011,22.76C46.346,23.336 45.933,24.154 45.773,25.214L53.137,25.214Z" style="fill:white;fill-rule:nonzero;"/>
    <path d="M73.621,36.724L69.939,31.366L66.842,36.724L60.475,36.724L66.807,26.873L60.303,17.437L66.911,17.437L70.593,22.76L73.69,17.437L80.057,17.437L73.621,27.15L80.229,36.724L73.621,36.724Z" style="fill:white;fill-rule:nonzero;"/>
    <path d="M93.2,31.712L93.2,36.724L90.206,36.724C88.072,36.724 86.408,36.205 85.215,35.168C84.022,34.108 83.426,32.392 83.426,30.018L83.426,22.345L81.086,22.345L81.086,17.437L83.426,17.437L83.426,12.737L89.311,12.737L89.311,17.437L93.165,17.437L93.165,22.345L89.311,22.345L89.311,30.087C89.311,30.663 89.448,31.078 89.724,31.332C89.999,31.585 90.458,31.712 91.1,31.712L93.2,31.712Z" style="fill:white;fill-rule:nonzero;"/>
    <path d="M131.13,12.46L131.13,36.724L125.245,36.724L125.245,22.172L119.842,36.724L115.093,36.724L109.656,22.138L109.656,36.724L103.771,36.724L103.771,12.46L110.722,12.46L117.502,29.258L124.213,12.46L131.13,12.46Z" style="fill:white;fill-rule:nonzero;"/>
    <path d="M153.465,26.769C153.465,27.322 153.43,27.898 153.361,28.497L140.043,28.497C140.135,29.696 140.513,30.617 141.178,31.263C141.867,31.885 142.704,32.196 143.691,32.196C145.159,32.196 146.18,31.574 146.754,30.329L153.017,30.329C152.696,31.597 152.111,32.737 151.262,33.751C150.436,34.765 149.392,35.56 148.13,36.136C146.868,36.712 145.457,37 143.897,37C142.016,37 140.341,36.597 138.873,35.79C137.404,34.984 136.257,33.832 135.431,32.334C134.605,30.836 134.192,29.085 134.192,27.08C134.192,25.076 134.594,23.325 135.397,21.827C136.223,20.329 137.37,19.177 138.838,18.37C140.307,17.564 141.993,17.161 143.897,17.161C145.756,17.161 147.408,17.552 148.853,18.336C150.298,19.119 151.423,20.237 152.226,21.689C153.052,23.14 153.465,24.834 153.465,26.769ZM147.442,25.214C147.442,24.2 147.098,23.394 146.409,22.795C145.721,22.195 144.861,21.896 143.828,21.896C142.842,21.896 142.004,22.184 141.316,22.76C140.651,23.336 140.238,24.154 140.077,25.214L147.442,25.214Z" style="fill:white;fill-rule:nonzero;"/>
    <path d="M155.399,27.046C155.399,25.064 155.766,23.325 156.5,21.827C157.257,20.329 158.278,19.177 159.563,18.37C160.848,17.564 162.282,17.161 163.865,17.161C165.127,17.161 166.274,17.426 167.307,17.956C168.362,18.486 169.188,19.2 169.784,20.099L169.784,11.147L175.669,11.147L175.669,36.724L169.784,36.724L169.784,33.958C169.234,34.88 168.442,35.618 167.41,36.17C166.4,36.724 165.219,37 163.865,37C162.282,37 160.848,36.597 159.563,35.79C158.278,34.961 157.257,33.797 156.5,32.299C155.766,30.779 155.399,29.027 155.399,27.046ZM169.784,27.08C169.784,25.606 169.371,24.442 168.545,23.589C167.742,22.737 166.756,22.311 165.586,22.311C164.416,22.311 163.418,22.737 162.592,23.589C161.789,24.419 161.387,25.571 161.387,27.046C161.387,28.52 161.789,29.696 162.592,30.571C163.418,31.424 164.416,31.85 165.586,31.85C166.756,31.85 167.742,31.424 168.545,30.571C169.371,29.719 169.784,28.555 169.784,27.08Z" style="fill:white;fill-rule:nonzero;"/>
    <path d="M182.887,15.432C181.854,15.432 181.005,15.133 180.34,14.534C179.697,13.912 179.376,13.151 179.376,12.253C179.376,11.331 179.697,10.571 180.34,9.972C181.005,9.349 181.854,9.038 182.887,9.038C183.896,9.038 184.722,9.349 185.364,9.972C186.03,10.571 186.362,11.331 186.362,12.253C186.362,13.151 186.03,13.912 185.364,14.534C184.722,15.133 183.896,15.432 182.887,15.432ZM185.812,17.437L185.812,36.724L179.927,36.724L179.927,17.437L185.812,17.437Z" style="fill:white;fill-rule:nonzero;"/>
    <path d="M188.906,27.046C188.906,25.064 189.274,23.325 190.008,21.827C190.765,20.329 191.786,19.177 193.071,18.37C194.355,17.564 195.789,17.161 197.372,17.161C198.726,17.161 199.908,17.437 200.917,17.99C201.95,18.543 202.741,19.269 203.292,20.168L203.292,17.437L209.177,17.437L209.177,36.724L203.292,36.724L203.292,33.993C202.718,34.892 201.915,35.618 200.883,36.17C199.873,36.724 198.692,37 197.338,37C195.778,37 194.355,36.597 193.071,35.79C191.786,34.961 190.765,33.797 190.008,32.299C189.274,30.779 188.906,29.027 188.906,27.046ZM203.292,27.08C203.292,25.606 202.879,24.442 202.053,23.589C201.25,22.737 200.263,22.311 199.093,22.311C197.923,22.311 196.925,22.737 196.099,23.589C195.296,24.419 194.895,25.571 194.895,27.046C194.895,28.52 195.296,29.696 196.099,30.571C196.925,31.424 197.923,31.85 199.093,31.85C200.263,31.85 201.25,31.424 202.053,30.571C202.879,29.719 203.292,28.555 203.292,27.08Z" style="fill:white;fill-rule:nonzero;"/>
    <path d="M6.848,30.045L6.848,0L29.711,25.128L29.711,10.938L26.487,10.939L33.355,2.9L39.841,10.938L36.778,10.939L36.778,36.516L29.71,36.516L13.492,18.147L13.492,36.516L0,36.516L0,30.045L6.848,30.045Z" style="fill:url(#_Linear1);fill-rule:nonzero;"/>
    <defs>
        <linearGradient id="_Linear1" x1="0" y1="0" x2="1" y2="0" gradientUnits="userSpaceOnUse" gradientTransform="matrix(52.0581,9.79293,-9.79293,52.0581,-2.73104,-2.42964e-07)"><stop offset="0" style="stop-color:rgb(145,129,244);stop-opacity:1"/><stop offset="1" style="stop-color:rgb(80,56,237);stop-opacity:1"/></linearGradient>
    </defs>
</svg>
